
<svg id="Ebene_1" data-name="Ebene 1" xmlns="http://www.w3.org/2000/svg" viewBox="0 0 340.16 42.52"><defs><style>.cls-1{fill:#006cb6;}</style></defs><title>Zeichenfläche 1</title><path d="M217.23,42.36a.38.38,0,0,1-.37-.37V.53a.38.38,0,0,1,.37-.37.37.37,0,0,1,.37.37V42A.37.37,0,0,1,217.23,42.36Z"/><path class="cls-1" d="M30.11,34.37v-26a1.19,1.19,0,0,1,1.19-1.2H49.73a1.19,1.19,0,0,1,1.19,1.2v4a1.19,1.19,0,0,1-1.19,1.2H37.43V18h12a1.19,1.19,0,0,1,1.2,1.19v4a1.2,1.2,0,0,1-1.2,1.2h-12v4.81h12.3a1.19,1.19,0,0,1,1.19,1.19v4a1.19,1.19,0,0,1-1.19,1.19H31.3A1.19,1.19,0,0,1,30.11,34.37Zm31,0V13.56H54.34a1.2,1.2,0,0,1-1.2-1.2v-4a1.2,1.2,0,0,1,1.2-1.2h20.8a1.2,1.2,0,0,1,1.2,1.2v4a1.2,1.2,0,0,1-1.2,1.2H68.42V34.37a1.19,1.19,0,0,1-1.19,1.19H62.3A1.19,1.19,0,0,1,61.1,34.37Zm46.29-13c0-8.64,6.51-14.68,15.2-14.68s15.15,6,15.15,14.68-6.47,14.68-15.15,14.68S107.39,30,107.39,21.39Zm22.9,0c0-4.64-3-8.21-7.7-8.21s-7.75,3.57-7.75,8.21,3.06,8.22,7.75,8.22S130.29,26,130.29,21.39Zm11.07,14.17V7.17h11.92c8.93,0,15.36,5.37,15.36,14.18s-6.43,14.21-15.32,14.21Zm19.79-14.21c0-4.39-2.64-7.79-7.83-7.79h-4.64V29.18h4.6A7.54,7.54,0,0,0,161.15,21.35Zm11.07,13v-26a1.19,1.19,0,0,1,1.19-1.2h18.43A1.19,1.19,0,0,1,193,8.37v4a1.19,1.19,0,0,1-1.19,1.2h-12.3V18h12a1.19,1.19,0,0,1,1.19,1.19v4a1.19,1.19,0,0,1-1.19,1.2h-12v4.81h12.3A1.19,1.19,0,0,1,193,30.37v4a1.19,1.19,0,0,1-1.19,1.19H173.41A1.19,1.19,0,0,1,172.22,34.37ZM104.3,18.21V34.4a1.17,1.17,0,0,1-1.17,1.17h-5A1.18,1.18,0,0,1,97,34.4V18.46c0-3.3-2-5.68-5.89-5.68s-5.84,2.38-5.84,5.68V34.4a1.17,1.17,0,0,1-1.17,1.17H79.19A1.18,1.18,0,0,1,78,34.4V18.25c0-6.93,4.17-11.81,13.09-11.81S104.3,11.37,104.3,18.21Zm-78,0V34.4a1.18,1.18,0,0,1-1.17,1.17h-5A1.17,1.17,0,0,1,19,34.4V18.46c0-3.3-2-5.68-5.88-5.68s-5.84,2.38-5.84,5.68V34.4a1.18,1.18,0,0,1-1.17,1.17H1.17A1.17,1.17,0,0,1,0,34.4V18.25C0,11.32,4.17,6.44,13.1,6.44S26.28,11.37,26.28,18.21Z"/><path d="M240.32,22.21a7.25,7.25,0,0,1,7.28-7.33,7,7,0,0,1,5.28,2.28L250.79,19a4.33,4.33,0,0,0-3.19-1.41,4.53,4.53,0,0,0-4.41,4.66A4.6,4.6,0,0,0,247.6,27c1.87,0,3.34-.89,3.71-2.38a2,2,0,0,0,.08-.35h-4V21.88h7.18c0,5.28-2.84,7.64-6.94,7.64A7.24,7.24,0,0,1,240.32,22.21Z"/><path d="M256,24.49a5.2,5.2,0,1,1,5.2,5A5,5,0,0,1,256,24.49Zm7.64,0a2.44,2.44,0,1,0-2.44,2.5A2.41,2.41,0,0,0,263.61,24.49Z"/><path d="M273.8,15.06h5.59c4.1,0,6.48,3.11,6.48,7.17s-2.38,7.1-6.48,7.1H273.8Zm5.59,11.72c2.38,0,3.6-2.11,3.6-4.55s-1.22-4.62-3.6-4.62h-2.72v9.17Z"/><path d="M287.8,16.33A1.72,1.72,0,1,1,289.52,18,1.67,1.67,0,0,1,287.8,16.33Zm.37,3.35h2.71v9.65h-2.71Z"/><path d="M303.43,19.68V28c0,4.22-2.13,6.19-5.55,6.19a5.13,5.13,0,0,1-4.7-2.94l2.26-1a2.76,2.76,0,0,0,2.44,1.49c1.74,0,2.84-.95,2.84-3.47v-.15a4,4,0,0,1-3.11,1.37,4.78,4.78,0,0,1-4.74-5,4.78,4.78,0,0,1,4.74-5,4,4,0,0,1,3.11,1.37V19.68Zm-2.8,4.81a2.51,2.51,0,1,0-2.5,2.5A2.5,2.5,0,0,0,300.63,24.49Z"/><path d="M305.69,16.33A1.72,1.72,0,1,1,307.41,18,1.67,1.67,0,0,1,305.69,16.33Zm.38,3.35h2.71v9.65h-2.71Z"/><path d="M316.94,21.77h-2.05v7.56h-2.71V21.77h-1.76V19.68h1.76V16.14h2.71v3.54h2.05Z"/><path d="M328.54,19.68v9.65h-2.71v-1.2a4,4,0,0,1-3.11,1.39,4.78,4.78,0,0,1-4.74-5,4.78,4.78,0,0,1,4.74-5,3.83,3.83,0,0,1,3.11,1.39V19.68Zm-2.79,4.81A2.51,2.51,0,0,0,323.24,22a2.47,2.47,0,0,0-2.5,2.49,2.51,2.51,0,0,0,5,0Z"/><path d="M331.16,14.53h2.72v14.8h-2.72Z"/><path d="M336.26,27.84A1.68,1.68,0,0,1,338,26.18a1.67,1.67,0,1,1,0,3.34A1.68,1.68,0,0,1,336.26,27.84Z"/></svg>