<?xml version="1.0" encoding="UTF-8"?>
<svg id="Isolationsmodus" xmlns="http://www.w3.org/2000/svg" width="110mm" height="27.52mm" viewBox="0 0 311.81 78.01">
  <defs>
    <style>
      .cls-1 {
        fill: none;
        stroke: #0aff1c;
        stroke-miterlimit: 10;
        stroke-width: 2px;
      }

      .cls-2 {
        fill: #fff;
        stroke-width: 0px;
      }
    </style>
  </defs>
  <path class="cls-2" d="M102.01,21.67h5.57v35.3h-6.51l-16.91-27.79v27.79h-5.62V21.67h6.91l16.56,27.1v-27.1ZM138.1,43.79v.75c0,7.81-4.97,13.08-12.68,13.08s-12.63-5.27-12.63-13.08v-.75c0-7.81,4.97-13.03,12.63-13.03s12.68,5.22,12.68,13.03ZM132.54,43.79c0-5.52-2.44-8.6-7.11-8.6s-7.06,3.08-7.06,8.6v.75c0,5.52,2.44,8.65,7.06,8.65s7.11-3.13,7.11-8.65v-.75ZM161.37,20.18h5.47v36.79h-5.07l-.15-4.28c-1.24,2.44-4.13,4.92-8.5,4.92-6.71,0-11.04-5.42-11.04-13.08v-.75c0-7.61,4.18-13.03,10.94-13.03,4.08,0,6.86,1.94,8.35,4.33v-14.92ZM161.57,43.79c0-5.52-2.54-8.7-7.06-8.7s-6.86,3.18-6.86,8.7v.75c0,5.47,2.44,8.65,6.86,8.65s7.06-3.13,7.06-8.65v-.75ZM196.58,45.38h-19.14c.25,5.12,2.73,7.86,7.06,7.86,3.58,0,5.72-1.69,6.46-4.28h5.47c-1.24,5.37-5.52,8.65-11.93,8.65-7.96,0-12.68-5.32-12.68-13.08v-.75c0-7.76,4.82-13.03,12.68-13.03,8.4,0,12.48,5.87,12.08,14.62ZM190.96,41.46c-.4-3.98-2.49-6.36-6.51-6.36s-6.31,2.19-6.91,6.36h13.42ZM224.92,36.39h-17.35v-14.72h-5.82v35.3h5.82v-15.71h17.35v15.71h5.82V21.67h-5.82v14.72ZM236.95,56.97h5.47v-25.61h-5.47v25.61ZM236.85,27.63h5.72v-7.46h-5.72v7.46ZM258.88,51.4l-6.86-20.04h-5.77l9.5,25.61h6.07l9.45-25.61h-5.62l-6.76,20.04ZM297.61,45.38h-19.14c.25,5.12,2.73,7.86,7.06,7.86,3.58,0,5.72-1.69,6.46-4.28h5.47c-1.24,5.37-5.52,8.65-11.93,8.65-7.96,0-12.68-5.32-12.68-13.08v-.75c0-7.76,4.82-13.03,12.68-13.03,8.4,0,12.48,5.87,12.08,14.62ZM291.99,41.46c-.4-3.98-2.49-6.36-6.51-6.36s-6.31,2.19-6.91,6.36h13.42ZM56.47,25.45l-18.82-10.86c-.96-.55-2.15-.55-3.11,0l-18.82,10.86c-.96.56-1.55,1.58-1.55,2.69v21.73c0,1.11.59,2.14,1.55,2.69l18.82,10.86c.48.28,1.02.42,1.55.42s1.07-.14,1.55-.42l18.82-10.86c.96-.56,1.55-1.58,1.55-2.69v-21.73c0-1.11-.59-2.14-1.55-2.69ZM51.81,48.08l-15.71,9.07-15.71-9.07v-18.14l15.71-9.07,15.71,9.07v18.14Z"/>
  <rect class="cls-1" x="-58.22" y="-285.31" width="832.1" height="427.88"/>
</svg>